<?xml version="1.0" encoding="iso-8859-1"?>
<!-- Generator: Adobe Illustrator 19.0.0, SVG Export Plug-In . SVG Version: 6.00 Build 0)  -->
<svg version="1.1" id="Capa_1" xmlns="http://www.w3.org/2000/svg" xmlns:xlink="http://www.w3.org/1999/xlink" x="0px" y="0px"
	 viewBox="0 0 512 512" style="enable-background:new 0 0 512 512;" xml:space="preserve">
<path style="fill:#A5C244;" d="M419.284,0h-30.905v512h30.905C470.278,512,512,470.278,512,419.284V92.716
	C512,41.722,470.278,0,419.284,0z"/>
<path style="fill:#CFEB6B;" d="M481.095,92.716v326.567c0,50.994-41.722,92.716-92.716,92.716H92.716
	C41.722,512,0,470.278,0,419.284V92.716C0,41.722,41.722,0,92.716,0h295.662C439.372,0,481.095,41.722,481.095,92.716z"/>
<path style="fill:#FFFFFF;" d="M182.737,400.088c-5.472-0.001-10.715-2.176-14.578-6.044L67.836,293.589
	c-8.042-8.051-8.032-21.097,0.02-29.138c8.052-8.042,21.097-8.032,29.138,0.02l85.749,85.864l232.271-232.382
	c8.044-8.049,21.089-8.052,29.138-0.007c8.049,8.045,8.051,21.09,0.007,29.138l-246.85,246.966
	C193.444,397.916,188.202,400.088,182.737,400.088z"/>
<g>
</g>
<g>
</g>
<g>
</g>
<g>
</g>
<g>
</g>
<g>
</g>
<g>
</g>
<g>
</g>
<g>
</g>
<g>
</g>
<g>
</g>
<g>
</g>
<g>
</g>
<g>
</g>
<g>
</g>
</svg>
