<?xml version="1.0" encoding="iso-8859-1"?>
<!-- Generator: Adobe Illustrator 19.0.0, SVG Export Plug-In . SVG Version: 6.00 Build 0)  -->
<svg version="1.1" id="Capa_1" xmlns="http://www.w3.org/2000/svg" xmlns:xlink="http://www.w3.org/1999/xlink" x="0px" y="0px"
	 viewBox="0 0 512 512" style="enable-background:new 0 0 512 512;" xml:space="preserve">
<path style="fill:#F17690;" d="M424.288,45.66c-30.134-14.22-63.05-15.501-92.685-3.611c-29.855,11.982-56.251,37.137-76.947,73.158
	c-20.696-36.021-47.092-61.177-76.947-73.158c-29.634-11.892-62.55-10.609-92.684,3.611C21.06,75.847-24.249,161.819,14.089,248.078
	c33.927,76.337,96.609,134.585,143.218,170.008c50.344,38.262,92.137,58.327,93.892,59.163c2.168,1.032,4.746,1.032,6.915,0
	c1.754-0.835,43.548-20.901,93.892-59.163c46.61-35.423,109.291-93.672,143.218-170.008
	C533.561,161.819,488.252,75.847,424.288,45.66z"/>
<path style="fill:#EE5375;" d="M192.163,409.989C145.553,374.566,82.872,316.316,48.945,239.98
	C10.607,153.722,55.916,67.75,119.88,37.563c2.492-1.176,5.005-2.255,7.532-3.254c-14.325,1.081-28.647,4.866-42.389,11.351
	C21.06,75.847-24.249,161.819,14.089,248.078c33.927,76.337,96.609,134.585,143.218,170.008
	c50.344,38.262,92.137,58.327,93.892,59.163c2.168,1.032,4.746,1.032,6.915,0c0.744-0.355,8.691-4.169,21.437-11.361
	C265.714,458.725,231.557,439.928,192.163,409.989z"/>
<path style="fill:#FDE8CF;" d="M254.655,138.522c-26.606,0-48.252,21.646-48.252,48.252s21.646,48.252,48.252,48.252
	c26.607,0,48.252-21.646,48.252-48.252S281.262,138.522,254.655,138.522z"/>
<path style="fill:#EEEBEA;" d="M294.865,243.069h-80.42c-13.303,0-24.126,10.824-24.126,24.126v88.462
	c0,4.441,3.601,8.042,8.042,8.042H310.95c4.441,0,8.042-3.601,8.042-8.042v-88.462C318.992,253.892,308.169,243.069,294.865,243.069
	z"/>
<path style="fill:#626178;" d="M255.661,138.522c-28.12,0-44.082,12.575-52.521,23.123c-9.159,11.449-11.56,23.062-11.659,23.552
	c-1.015,5.081,3.033,9.619,8.115,9.619h86.557l0.912,27.675c0,0,16.194-11.968,16.194-33.706
	C303.258,159.968,284.904,138.522,255.661,138.522z"/>
<polygon style="fill:#FDE8CF;" points="230.529,243.069 254.655,275.237 278.781,243.069 "/>
<g>
	<path style="fill:#D8D7DD;" d="M230.529,243.069l-6.669,20.007c-0.741,2.222,0.567,4.604,2.84,5.172l27.955,6.988L230.529,243.069z
		"/>
	<path style="fill:#D8D7DD;" d="M278.781,243.069l6.669,20.007c0.741,2.222-0.567,4.604-2.84,5.172l-27.955,6.988L278.781,243.069z"
		/>
</g>
<g>
	<circle style="fill:#89889A;" cx="254.65" cy="291.322" r="6.032"/>
	<circle style="fill:#89889A;" cx="254.65" cy="317.458" r="6.032"/>
	<circle style="fill:#89889A;" cx="254.65" cy="343.595" r="6.032"/>
</g>
<path style="fill:#5589E9;" d="M423.538,299.308c-48.778,0-88.462,39.684-88.462,88.462s39.684,88.462,88.462,88.462
	S512,436.548,512,387.771S472.317,299.308,423.538,299.308z"/>
<path style="fill:#F6F5F5;" d="M463.748,379.729H431.58V347.56c0-4.441-3.601-8.042-8.042-8.042c-4.441,0-8.042,3.601-8.042,8.042
	v32.168h-32.168c-4.441,0-8.042,3.601-8.042,8.042c0,4.441,3.601,8.042,8.042,8.042h32.168v32.168c0,4.441,3.601,8.042,8.042,8.042
	c4.441,0,8.042-3.601,8.042-8.042v-32.168h32.168c4.441,0,8.042-3.601,8.042-8.042C471.79,383.329,468.19,379.729,463.748,379.729z"
	/>
<g>
</g>
<g>
</g>
<g>
</g>
<g>
</g>
<g>
</g>
<g>
</g>
<g>
</g>
<g>
</g>
<g>
</g>
<g>
</g>
<g>
</g>
<g>
</g>
<g>
</g>
<g>
</g>
<g>
</g>
</svg>
