<?xml version="1.0" encoding="iso-8859-1"?>
<!-- Generator: Adobe Illustrator 19.0.0, SVG Export Plug-In . SVG Version: 6.00 Build 0)  -->
<svg version="1.1" id="Layer_1" xmlns="http://www.w3.org/2000/svg" xmlns:xlink="http://www.w3.org/1999/xlink" x="0px" y="0px"
	 viewBox="0 0 510.67 510.67" style="enable-background:new 0 0 510.67 510.67;" xml:space="preserve">
<g>
	<path style="fill:#FFD46A;" d="M357.56,125.596c0-50.322-40.939-91.261-91.261-91.261s-91.261,40.939-91.261,91.261
		s40.939,91.261,91.261,91.261S357.56,175.918,357.56,125.596z"/>
	<path style="fill:#4CC7BB;" d="M344.939,275.994L276.78,392.249c-2.181,3.72-6.17,6.005-10.481,6.005s-8.301-2.285-10.481-6.005
		l-68.159-116.255c-62.291,3.496-112.122,54.393-113.932,117.113l22.961-22.961c4.746-4.745,12.438-4.745,17.184,0
		c4.744,4.745,4.744,12.438,0,17.183L73.671,427.53v51.693l32.925-32.925c4.746-4.745,12.438-4.745,17.184,0
		c4.744,4.745,4.744,12.438,0,17.183l-32.926,32.926h50.617l40.322-40.323c4.746-4.745,12.438-4.745,17.183,0
		s4.745,12.438,0.001,17.183l-23.14,23.14h283.09V396.64C458.927,332.307,408.395,279.555,344.939,275.994z"/>
	<g>
		<path d="M460.112,510.67H50.556c-6.627,0-12.15-5.513-12.15-12.15V386.604c0-80.029,65.108-145.137,145.137-145.137
			c4.312,0,8.301,2.285,10.481,6.005l61.311,104.574l61.311-104.574c2.181-3.72,6.17-6.005,10.481-6.005
			c80.028,0,145.137,65.108,145.137,145.137V498.52C472.263,505.23,466.822,510.67,460.112,510.67z M164.871,486.37h283.091v-99.767
			c0-64.332-50.531-117.083-113.987-120.645l-68.159,116.255c-2.181,3.72-6.17,6.005-10.481,6.005
			c-4.311,0-8.301-2.285-10.481-6.005l-68.159-116.255c-62.293,3.497-112.131,54.396-113.938,117.119l22.968-22.968
			c4.746-4.745,12.438-4.745,17.184,0c4.744,4.745,4.744,12.438,0,17.183l-40.201,40.201v51.694l32.926-32.926
			c4.744-4.745,12.437-4.745,17.183,0c4.744,4.745,4.744,12.438,0,17.183L79.889,486.37h50.617l40.323-40.323
			c4.744-4.744,12.437-4.745,17.183,0c4.744,4.745,4.744,12.438,0,17.183L164.871,486.37z M255.334,231.122
			c-63.721,0-115.562-51.84-115.562-115.561S191.613,0,255.334,0s115.562,51.84,115.562,115.561S319.055,231.122,255.334,231.122z
			 M255.334,24.3c-50.321,0-91.261,40.94-91.261,91.261c0,50.322,40.939,91.261,91.261,91.261s91.261-40.939,91.261-91.261
			C346.595,65.24,305.655,24.3,255.334,24.3z"/>
	</g>
</g>
<g>
</g>
<g>
</g>
<g>
</g>
<g>
</g>
<g>
</g>
<g>
</g>
<g>
</g>
<g>
</g>
<g>
</g>
<g>
</g>
<g>
</g>
<g>
</g>
<g>
</g>
<g>
</g>
<g>
</g>
</svg>
