<svg id="Capa_1" enable-background="new 0 0 511.998 511.998" height="512" viewBox="0 0 511.998 511.998" width="512" xmlns="http://www.w3.org/2000/svg"><g><g><path d="m444.458 506.91h-376.152c-.298-5.112-.298-5.027-.064-9.873 1.966-41.274 20.009-78.65 51.454-105.462 34.559-29.478 70.839-42.837 84.535-47.003.63-.192 1.182-1.161 1.819-1.329 1.894-.5 3.811-.914 5.723-1.349 2.082-.473 3.881-1.297 5.428-2.389 11.7-8.172 9.405-31.243 9.405-31.243h58.787s-2.295 23.071 9.405 31.243c1.547 1.093 3.346 1.916 5.428 2.389 1.911.434 3.827.848 5.72 1.348.638.168 1.236 2.037 1.867 2.229 13.697 4.166 50.151 17.69 84.71 47.168 31.445 26.811 50.033 63.123 51.999 104.397.234 4.847.234 4.763-.064 9.874z" fill="#ffcebf"/><path d="m446.46 511.998h-380.922c-.296-5.109-.296-10.118-.066-14.964 1.962-41.273 21.749-79.554 53.201-106.357 36.308-30.969 75.553-44.025 87.371-47.456 0 0 .821 52.164 43.75 76.535 3.836 2.178 8.576 2.178 12.412 0 42.928-24.371 43.75-76.535 43.75-76.535 11.818 3.431 51.063 16.487 87.371 47.456 31.451 26.803 51.238 65.084 53.201 106.357.228 4.846.228 9.856-.068 14.964z" fill="#57be92"/><path d="m446.46 511.998h-19.732l-3-.11c-1.962-41.274-18.749-79.554-50.2-106.358-25.707-21.925-52.883-34.871-70.762-41.789 3.048-11.894 3.19-20.522 3.19-20.522 11.818 3.431 51.063 16.487 87.371 47.456 31.451 26.803 51.238 65.084 53.201 106.357.228 4.848.228 9.858-.068 14.966z" fill="#22b27f"/></g><g><g fill="#ffcebf"><path d="m141.27 205.526h-5.126c-15.553 0-28.16-12.608-28.16-28.16v-.053c0-15.553 12.608-28.16 28.16-28.16h5.126z"/><path d="m370.728 205.526h5.126c15.553 0 28.16-12.608 28.16-28.16v-.053c0-15.553-12.608-28.16-28.16-28.16h-5.126z"/></g><path d="m138.896 87.466.002 115.487c0 3.998.201 7.953.591 11.845 5.922 59.226 55.822 105.476 116.51 105.476 32.345 0 60.021-14.051 81.208-35.277 18.579-18.614 30.755-40.947 33.521-68.615.391-3.892 0-8.514 0-12.512l.447-15.794-.447-100.61z" fill="#ffeee6"/><g><g><path d="m211.283 198.033c-4.143 0-7.5-3.357-7.5-7.5v-13.471c0-4.143 3.357-7.5 7.5-7.5s7.5 3.357 7.5 7.5v13.471c0 4.143-3.357 7.5-7.5 7.5z" fill="#596c76"/></g><g><path d="m300.715 198.033c-4.143 0-7.5-3.357-7.5-7.5v-13.471c0-4.143 3.357-7.5 7.5-7.5s7.5 3.357 7.5 7.5v13.471c0 4.143-3.357 7.5-7.5 7.5z" fill="#596c76"/></g></g><path d="m373.098 130.03v53.768l-1.923 5.227-.447 14.844c0 4.005.39 8.627 0 12.512-2.184 21.836-11.237 40.073-23.241 56.294-3.209 4.337-6.361 8.394-10.281 12.321-5.959 5.97-12.672 11.645-19.799 16.221-17.132 11.002-34.044 16.754-55.547 17.564-1.356.051-4.483 1.486-5.862 1.486-3.678 0-7.326-.17-10.913-.501 23.174-2.11 44.306-10.988 61.583-24.635 3.63-2.868 7.169-5.947 10.433-9.217 18.579-18.614 30.941-43.445 33.7-71.12.39-3.885.59-7.84.59-11.845l.01-72.92h21.697z" fill="#ffdfcf"/><path d="m373.101 181.811-1.926 19.509c0 3.998-.056 9.062-.447 12.954-1.655 16.554-6.877 31.429-14.678 45.228-5.238 9.265-11.38 18.017-18.843 25.494-16.526 16.557-36.21 27.273-60.197 31.59-3.546.638-5.792 1.446-9.441 1.756-3.312.282-8.185 1.93-11.57 1.93-60.688 0-110.588-46.249-116.51-105.476-.391-3.892-.591-7.847-.591-11.845v-21.142s24.203 36.934 87.744 47.024c19.442 3.087 39.273 3.087 58.715 0 63.541-10.087 87.744-47.022 87.744-47.022z" fill="#f5f8f9"/><path d="m373.098 181.813v21.137c0 4.005-.2 7.96-.59 11.845-2.768 27.675-15.131 52.506-33.71 71.12-8.213 8.228-17.64 15.239-27.99 20.74-16.351 8.691-35.005 13.613-54.809 13.613-3.547 0-7.209-.019-10.726-.518 22.27-2.06 43.864-10.728 61.395-24.614 3.628-2.874 7.166-5.947 10.434-9.222 18.579-18.614 30.941-43.445 33.7-71.12.39-3.885.59-7.84.59-11.845v-.19c15.18-10.983 21.706-20.946 21.706-20.946z" fill="#d9e7ec"/></g><path d="m347.362 26.368c-4.411 0-7.81-3.608-7.633-8.016.385-9.562-2.576-14.515-5.32-17.038-1.844-1.695-4.784-1.125-5.946 1.095-4.018 7.67-11.042 13.482-17.658 17.589-4.821 2.993-10.09 5.124-15.576 6.377l-6.068-.003c-4.466-.002-8.085-3.66-7.916-8.123.39-10.318-3.128-15.242-6.029-17.536-1.609-1.272-4-.794-4.91 1.045-3.954 7.993-11.188 14.018-17.99 18.24-4.821 2.993-10.091 5.124-15.576 6.377l-5.042-.003c-4.569-.002-8.063-3.735-7.909-8.301.344-10.197-3.151-15.078-6.036-17.358-1.625-1.285-4.01-.767-4.932 1.088-8.886 17.893-34.201 25.906-34.201 25.906h-13.983c-14.206 0-25.723 11.517-25.723 25.723v91.549s24.987-8.342 32.926-34.412v.036s14.673 44.04 95.065 34.377c0 0-8.686-19.919-10.906-37.378 0 0 44.857 47.042 117.085 38.189v-93.7c0-14.206-11.516-25.723-25.722-25.723z" fill="#fec165"/><path d="m351.024 56.756c0-14.205-10.452-18.899-24.658-18.899-4.364 0-7.809-3.652-7.634-8.016.227-5.509-.671-10.182-1.991-13.978 4.622-3.616 8.941-8.105 11.756-13.521 1.126-2.166 3.974-2.765 5.792-1.135 2.775 2.489 5.827 7.446 5.437 17.136-.177 4.409 3.358 8 7.77 8.023 14.143.074 25.592 11.568 25.592 25.728v93.702c-7.3.894-15.189 1.219-21.912 1.075z" fill="#fdb441"/></g></svg>