<svg id="Layer_1" enable-background="new 0 0 512 512" height="512" viewBox="0 0 512 512" width="512" xmlns="http://www.w3.org/2000/svg"><g><g><path d="m470.704 119.867v.11c-.02.21-.11.42-.27.59-17.23 17.57-26.88 41.2-26.88 65.81v102.761l-77.15-.33-130.4-.56-31.8-.14-148.1-.63v-80.881c-.5-22.49.53-101.781 57.88-156.991 6.31-6.07 12.96-11.52 19.91-16.38.73-.51 1.47-1.03 2.23-1.53 18.97-12.83 40.04-21.38 62.05-26.33 54.95-12.38 115.8-2.31 164.74 19.65 2.49 1.11 2.42 4.67-.1 5.71l-19.97 8.21c-2.98 1.23-2.35 5.62.86 5.96l9.69 1.04c52.17 5.57 95.56 36.65 117.2 73.5.07.13.1.28.1.43.01.001.01.001.01.001z" fill="#003343"/><path d="m470.704 119.867v.11c-.02.21-.11.42-.27.59-17.23 17.57-26.88 41.2-26.88 65.81v102.761l-77.15-.33-130.4-.56c-48.92-60.04-84.19-108.781-69.77-108.781 48.48 0 117.8 28.94 163.32 28.94 51.58 0 77.38-17.03 77.38-17.03 0-24.61 10.28-49.27 27.51-66.84-21.64-36.85-65.5-68.03-117.67-73.601l-9.69-1.04c-3.21-.34-3.84-4.73-.86-5.96l19.97-8.21c2.52-1.04 2.59-4.6.1-5.71-38.26-17.17-83.81-27.07-128.12-24.65 54.95-12.38 115.8-2.31 164.74 19.65 2.49 1.11 2.42 4.67-.1 5.71l-19.97 8.21c-2.98 1.23-2.35 5.62.86 5.96l9.69 1.04c52.17 5.57 95.56 36.65 117.2 73.5.07.13.1.28.1.43.01.001.01.001.01.001z" fill="#002439"/><path d="m204.204 186.738v101.371l-148.1-.63v-80.881c-.5-22.49.53-101.781 57.88-156.991 6.31-6.07 12.96-11.52 19.91-16.38-59.35 42.15-14.76 122.93 70.31 153.511z" fill="#415e6f"/><path d="m470.704 119.867v.11c-.02.21-.11.42-.27.59-17.23 17.57-26.88 41.2-26.88 65.81v102.761l-77.15-.33v-62.74s-.42-8.7 1.54-21.13c4.04-25.48 18.12-66.62 66.5-80.4 10.41-2.971 22.42-4.671 36.26-4.671z" fill="#415e6f"/><path d="m470.704 119.867v.11c-.02.21-.11.42-.27.59-17.23 17.57-26.88 41.2-26.88 65.81v102.761l-77.15-.33v-62.74s-.42-8.7 1.54-21.13c25.99-4.98 38.99-13.56 38.99-13.56 0-24.61 10.28-49.27 27.51-66.84 10.41-2.971 22.42-4.671 36.26-4.671z" fill="#003343"/><g fill="#66300e"><path d="m93.646 336.016c-3.427.913-7.027 1.4-10.742 1.4-22.979 0-41.608-18.629-41.608-41.608s18.629-41.608 41.608-41.608c4.059 0 7.983.581 11.692 1.665z"/><path d="m405.153 336.283c3.108.741 6.352 1.134 9.687 1.134 22.979 0 41.608-18.629 41.608-41.608s-18.628-41.609-41.607-41.609c-4.059 0-7.983.581-11.692 1.665z"/></g><path d="m409.504 354.139c0 38.12-32.46 83.671-96.52 135.401-17.95 14.57-40.41 22.52-63.57 22.46-3.25.01-6.49-.15-9.7-.46-19.71-1.86-38.5-9.49-53.95-22.04-64.01-51.71-96.47-97.251-96.47-135.361 0-4.05.15-8.1.5-11.99.41-4.2 1.37-12.03 1.65-22.19-.02-17.6-.16-32.61-.27-45.51-.05-6.08-.1-11.69-.13-16.88-.32-49.38 45.45-87.981 95.91-75.901 45.17 10.83 60.85 32.5 116.21 44.51 31.47 6.83 61.4 1.75 87.07-6.14 8.17-2.51 16.42 3.62 16.43 12.16.01 13.51-.02 38.65-.02 86.761.18 10.13 1.96 18.96 2.37 23.09.33 3.99.49 8.04.49 12.09z" fill="#b5612a"/><g><path d="m409.504 354.139c0 38.12-32.46 83.671-96.52 135.401-17.95 14.57-40.41 22.52-63.57 22.46-3.25.01-6.49-.15-9.7-.46 16.89-2.9 32.84-10.09 46.27-21 64.06-51.73 96.52-97.281 96.52-135.401 0-4.05-.16-8.1-.49-12.09-.41-4.13-2.19-12.96-2.37-23.09 0-20.54 0-36.89.01-49.94 0-12.47-11.03-21.98-23.38-20.26-16.81 2.34-34.7 2.42-53.11-1.58-55.36-12.01-71.04-33.68-116.21-44.51-48.71-11.66-93.04 23.9-95.78 70.78-.05-6.08-.1-11.69-.13-16.88-.32-49.38 45.45-87.981 95.91-75.901 45.17 10.83 60.85 32.5 116.21 44.51 31.47 6.83 61.4 1.75 87.07-6.14 8.17-2.51 16.42 3.62 16.43 12.16.01 13.51-.02 38.65-.02 86.761.18 10.13 1.96 18.96 2.37 23.09.33 3.99.49 8.04.49 12.09z" fill="#8e4513"/></g></g><g fill="#66300e"><path d="m249.272 329.771c-12.635 0-22.913 10.279-22.913 22.913 0 4.142 3.357 7.5 7.5 7.5s7.5-3.358 7.5-7.5c0-4.363 3.55-7.913 7.913-7.913s7.913 3.55 7.913 7.913c0 4.142 3.357 7.5 7.5 7.5s7.5-3.358 7.5-7.5c.001-12.634-10.278-22.913-22.913-22.913z"/><path d="m179.761 260.751c-25.518 0-46.278 18.275-46.278 40.739 0 4.142 3.357 7.5 7.5 7.5s7.5-3.358 7.5-7.5c0-14.192 14.031-25.739 31.278-25.739s31.278 11.546 31.278 25.739c0 4.142 3.357 7.5 7.5 7.5s7.5-3.358 7.5-7.5c0-22.464-20.761-40.739-46.278-40.739z"/><path d="m318.785 260.751c-25.518 0-46.278 18.275-46.278 40.739 0 4.142 3.357 7.5 7.5 7.5s7.5-3.358 7.5-7.5c0-14.192 14.031-25.739 31.278-25.739s31.278 11.546 31.278 25.739c0 4.142 3.357 7.5 7.5 7.5s7.5-3.358 7.5-7.5c0-22.464-20.76-40.739-46.278-40.739z"/></g><g><path d="m314.23 395.92c-.8 6.89-3.07 13.42-6.53 19.34-10.69 18.37-32.84 30.98-58.43 30.98-4.45 0-8.79-.38-12.99-1.11-19.95-3.45-36.6-14.69-45.44-29.87-3.46-5.92-5.73-12.45-6.53-19.34-.35-3.01 2.08-5.64 5.11-5.64h119.71c3.03 0 5.45 2.63 5.1 5.64z" fill="#f87675"/><path d="m314.23 395.92c-.8 6.89-3.07 13.42-6.53 19.34-10.69 18.37-32.84 30.98-58.43 30.98-4.45 0-8.79-.38-12.99-1.11 29.83-5.17 52.28-27.76 52.28-54.85h20.57c3.03 0 5.45 2.63 5.1 5.64z" fill="#ff4656"/><path d="m314.23 395.92c-.8 6.89-3.07 13.42-6.53 19.34h-116.86c-3.46-5.92-5.73-12.45-6.53-19.34-.35-3.01 2.08-5.64 5.11-5.64h119.71c3.03 0 5.45 2.63 5.1 5.64z" fill="#eef0f5"/><path d="m314.23 395.92c-.8 6.89-3.07 13.42-6.53 19.34h-25.99c4.38-7.52 6.85-16 6.85-24.98h20.57c3.03 0 5.45 2.63 5.1 5.64z" fill="#dae1ea"/></g><g fill="#99e7fa"><path d="m145.982 328.49c-1.483 0-2.891.659-3.841 1.798-2.858 3.429-17.121 21.049-17.121 31.163 0 11.559 9.403 20.962 20.962 20.962s20.962-9.403 20.962-20.962c0-10.114-14.263-27.734-17.121-31.163-.95-1.14-2.357-1.798-3.841-1.798z"/><path d="m356.404 330.288c-.95-1.14-2.357-1.798-3.841-1.798s-2.891.659-3.841 1.798c-2.858 3.429-17.121 21.049-17.121 31.163 0 11.559 9.403 20.962 20.962 20.962s20.962-9.403 20.962-20.962c0-10.114-14.262-27.734-17.121-31.163z"/></g></g></svg>