<svg id="Capa_1" enable-background="new 0 0 512 512" height="512" viewBox="0 0 512 512" width="512" xmlns="http://www.w3.org/2000/svg"><g><g><g fill="#d88a55"><path d="m136.649 199.392h-5.333c-16.179 0-29.295-13.116-29.295-29.295v-.055c0-16.179 13.116-29.295 29.295-29.295h5.333z"/><path d="m375.351 199.392h5.333c16.179 0 29.295-13.116 29.295-29.295v-.055c0-16.179-13.116-29.295-29.295-29.295h-5.333z"/></g><path d="m450.597 494.047c-2.693-41.2-22.741-79.199-54.146-106.003-44.356-37.857-93.029-49.566-93.029-49.566-20.622-2.08-17.374-34.733-17.374-34.733h-30.048-30.048s3.249 32.653-17.374 34.733c0 0-48.771 11.733-93.163 49.68-31.505 26.932-51.523 65.154-54.052 106.524-.341 5.582-.384 11.368-.043 17.311h194.68 194.68c.354-6.167.294-12.167-.083-17.946z" fill="#d9e7ec"/><path d="m450.679 512h-23.473c.292-5.242.303-10.342.065-15.303-2.021-42.191-22.241-72.127-54.381-99.534-44.331-37.803-92.952-49.497-92.952-49.497-20.62-2.086-17.367-43.92-17.367-43.92h23.473s-3.242 32.648 17.378 34.734c0 0 48.621 11.693 92.952 49.497 32.14 27.407 52.36 66.529 54.37 108.72.238 4.961.238 10.061-.065 15.303z" fill="#b6c4cf"/><path d="m316.242 321.882c-2.11-11.067-7.623-22.508-17.907-27.108h-84.67c-10.285 4.599-15.797 16.041-17.907 27.108-4.787 25.108 23.511 45.121 47.222 43.51h26.04c23.711 1.611 52.009-18.402 47.222-43.51z" fill="#596c76"/><path d="m269.023 365.391h-19.713c22.382-1.405 46.276-20.285 41.845-43.51-2.107-11.066-7.619-22.511-17.907-27.104h25.083c10.288 4.593 15.8 16.038 17.907 27.104 4.788 25.105-23.505 45.12-47.215 43.51z" fill="#465a61"/><path d="m134.18 84.204.001 53.938.001 36.579 1.138 4.672.156 19.999c0 4.159.769 9.614 1.175 13.662 1.868 18.686 9.552 34.124 18.708 48.748 21.033 33.595 56.657 54.854 100.642 54.854 33.648 0 63.307-12.682 85.347-34.764 19.328-19.364 31.795-43.877 34.672-72.659.406-4.049.691-7.721.691-11.88v-18.648l1.109-3.984.001-90.518h-57.804l-64.017-42.075-88.224 42.076z" fill="#f6a96c"/><g><g><path d="m209.483 191.295c-4.142 0-7.5-3.358-7.5-7.5v-14.014c0-4.142 3.358-7.5 7.5-7.5s7.5 3.358 7.5 7.5v14.014c0 4.142-3.358 7.5-7.5 7.5z" fill="#596c76"/></g><g><path d="m302.517 191.295c-4.142 0-7.5-3.358-7.5-7.5v-14.014c0-4.142 3.358-7.5 7.5-7.5s7.5 3.358 7.5 7.5v14.014c0 4.142-3.358 7.5-7.5 7.5z" fill="#596c76"/></g></g><path d="m377.816 84.204v90.518l-1.146 5.889-1.32 15.653c0 4.166.405 11.357 0 15.399-2.88 28.79-14.546 49.572-33.873 68.936-22.041 22.082-51.835 38.158-85.478 38.158-3.826 0-7.621-.177-11.353-.521 24.107-2.195 46.091-11.43 64.064-25.628 3.776-2.983 7.458-6.187 10.853-9.589 19.327-19.363 32.188-45.195 35.057-73.985.405-4.042.613-8.156.613-12.322l.01-112.508z" fill="#ea9b58"/><path d="m377.819 174.722v21.993c0 4.159-.209 8.274-.615 12.322-2.877 28.782-15.737 54.615-35.064 73.979-22.04 22.081-52.492 35.746-86.14 35.746-63.133 0-115.043-48.113-121.204-109.725-.406-4.049-.615-8.164-.615-12.322v-21.993s25.178 38.422 91.279 48.918c20.225 3.211 40.855 3.211 61.08 0 66.101-10.496 91.279-48.918 91.279-48.918z" fill="#f5f8f9"/><path d="m377.816 174.724v21.988c0 4.166-.208 8.281-.613 12.322-2.88 28.79-15.741 54.622-35.068 73.985-22.041 22.082-52.492 35.737-86.135 35.737-2.966 0-5.839-.096-8.796-.313-.852-.062-1.694-.135-2.536-.208 24.099-2.208 46.067-11.426 64.043-25.624 3.774-2.989 7.454-6.187 10.854-9.593 19.327-19.363 32.188-45.195 35.057-73.985.405-4.042.613-8.156.613-12.322v-.198c15.792-11.425 22.581-21.789 22.581-21.789z" fill="#d9e7ec"/></g><path d="m384.163.094c-14.913 2.534-31.36 1.474-31.36 1.474h-96.803c-83.067-2.189-87.108 33.284-86.893 41.758.025.986-.731 1.816-1.715 1.874-31.733 1.881-33.201 30.935-33.201 30.935v62.025s37.566-5.867 49.3-45.262c0 0 18.999 50.291 194.318 45.262v-90.521c0-14.035 6.336-27.663 12.767-37.881 2.915-4.632-1.018-10.58-6.413-9.664z" fill="#ac5e2e"/><path d="m134.191 138.162s37.566-5.867 49.3-45.262c0 0 18.998 50.291 194.317 45.262v-45.262l-199.081-15.744-44.536 15.744z" fill="#ac5e2e"/><path d="m390.578 9.758c-6.436 10.215-12.769 23.849-12.769 37.884v90.516c-7.939.227-15.56.34-22.871.35v-90.144c0-14.025 6.333-27.659 12.769-37.874 2.008-3.182.772-6.992-1.956-8.763 5.499-.124 12.089-.556 18.412-1.627 5.396-.917 9.33 5.024 6.415 9.658z" fill="#9e5528"/></g></svg>