<svg id="Capa_1" enable-background="new 0 0 512 512" height="512" viewBox="0 0 512 512" width="512" xmlns="http://www.w3.org/2000/svg"><g><path d="m438.849 497.656c-1.855-40.273-21.112-77.637-51.782-103.804-19.203-16.384-36.829-25.212-52.992-32.603-1.328-.607-2.298-3.607-3.571-4.163-10.824-4.728-19.561-7.627-24.596-9.138-2.215-.665-4.477-1.137-6.736-1.636-17.417-3.844-14.538-32.779-14.538-32.779h-28.634-28.635s2.879 28.935-14.537 32.779c-2.26.499-4.524.972-6.741 1.637-5.036 1.511-13.771 4.41-24.592 9.137-1.07.467-1.469 3.66-2.578 4.163-16.314 7.405-34.504 16.06-54.006 32.73-30.025 25.666-49.101 62.092-51.512 101.518-.325 5.32-.366 7.64-.041 13.304l365.418.005c.281-4.903.288-6.5.073-11.15z" fill="#d88a55"/><path d="m441.53 512h-371.06c-.288-4.995-.288-9.856-.062-14.584 1.916-40.208 21.185-77.492 51.815-103.61 20.763-17.704 42.515-29.404 59.272-36.717 21.35 11.113 45.265 15.284 74.505 15.284s53.154-4.171 74.505-15.284c16.757 7.312 38.509 19.012 59.272 36.717 30.63 26.119 49.9 63.402 51.815 103.61.226 4.728.226 9.589-.062 14.584z" fill="#fe646f"/><path d="m441.53 512h-21.876c-.021-1.658-.144-3.294-.144-4.913-.016-48.513-21.175-79.87-51.805-106.793-18.961-16.664-38.746-28.168-54.792-35.779 6.077-2.019 11.927-4.47 17.591-7.426 16.757 7.312 38.509 19.012 59.272 36.717 30.63 26.119 49.9 63.402 51.815 103.61.227 4.728.227 9.589-.061 14.584z" fill="#fd4755"/><g><g><path d="m170.517 475.919v35.584c0 .165-.01.33-.021.494h-15.408c-.01-.165-.021-.33-.021-.494v-35.584c0-4.264 3.461-7.724 7.724-7.724 4.275 0 7.726 3.46 7.726 7.724z" fill="#f9384f"/></g><g><path d="m356.932 475.919v35.584c0 .165-.01.33-.021.494h-15.408c-.01-.165-.021-.33-.021-.494v-35.584c0-4.264 3.45-7.724 7.724-7.724 4.266 0 7.726 3.46 7.726 7.724z" fill="#f9384f"/></g></g><g><g fill="#d88a55"><path d="m140.847 204.022h-5.145c-15.61 0-28.265-12.654-28.265-28.265v-.053c0-15.61 12.654-28.265 28.265-28.265h5.145z"/><path d="m371.153 204.022h5.145c15.61 0 28.265-12.654 28.265-28.265v-.053c0-15.61-12.654-28.265-28.265-28.265h-5.145z"/></g><path d="m138.464 92.886.001 87.333 2.054 6.818.031 14.894c0 4.013.201 7.983.593 11.889 5.944 59.445 53.944 103.344 114.856 103.344 32.464 0 59.666-11.705 80.931-33.01 18.648-18.683 31.15-42.346 33.926-70.116.392-3.906.593-7.876.593-11.889l.539-16.408 1.546-5.523.001-87.333h-55.771l-61.764-40.595-85.121 40.596z" fill="#f6a96c"/><g><g><path d="m211.119 196.698c-4.267 0-7.724-3.458-7.724-7.724v-13.521c0-4.266 3.458-7.724 7.724-7.724s7.724 3.458 7.724 7.724v13.521c0 4.266-3.457 7.724-7.724 7.724z" fill="#596c76"/></g><g><path d="m300.881 196.698c-4.267 0-7.724-3.458-7.724-7.724v-13.521c0-4.266 3.458-7.724 7.724-7.724 4.267 0 7.724 3.458 7.724 7.724v13.521c0 4.266-3.457 7.724-7.724 7.724z" fill="#596c76"/></g></g><path d="m373.532 92.886v108.551c0 4.02-.201 7.989-.592 11.889-2.779 27.777-15.187 52.701-33.834 71.383-21.266 21.305-50.646 34.48-83.106 34.48-3.691 0-7.353-.171-10.954-.502 23.259-2.118 44.47-11.028 61.811-24.727 3.644-2.878 7.195-5.969 10.472-9.251 18.647-18.682 31.056-43.606 33.824-71.383.391-3.899.592-7.869.592-11.889l.01-108.551h21.777z" fill="#ea9b58"/><path d="m373.534 180.22v21.22c0 4.013-.201 7.983-.593 11.889-2.776 27.77-15.183 52.694-33.831 71.377-21.265 21.305-50.646 34.489-83.11 34.489-60.913 0-110.997-46.42-116.941-105.866-.392-3.906-.593-7.876-.593-11.889v-21.22s24.293 37.071 88.069 47.197c19.514 3.098 39.418 3.098 58.932 0 63.775-10.126 88.067-47.197 88.067-47.197z" fill="#f5f8f9"/><path d="m373.532 180.222v21.215c0 4.02-.201 7.989-.592 11.889-2.779 27.777-15.187 52.701-33.834 71.383-21.266 21.305-50.646 34.48-83.106 34.48-2.861 0-5.633-.092-8.487-.302-.822-.06-1.635-.131-2.447-.201 23.252-2.131 44.447-11.025 61.79-24.722 3.641-2.884 7.192-5.97 10.472-9.256 18.647-18.682 31.056-43.606 33.824-71.383.391-3.899.592-7.869.592-11.889v-.191c15.238-11.024 21.788-21.023 21.788-21.023z" fill="#d9e7ec"/></g><path d="m366.893 2.856-30.751 16.237c-1.251.661-2.743.681-4.012.054l-37.827-18.691c-1.282-.634-2.792-.606-4.05.074l-32.186 17.404c-1.308.708-2.886.708-4.194 0l-32.186-17.403c-1.258-.68-2.768-.708-4.05-.074l-37.827 18.69c-1.268.627-2.761.607-4.012-.054l-30.75-16.237c-2.934-1.549-6.463.575-6.467 3.893l-.176 137.862s20.951-16.143 34.295-38.437c6.496-10.853 19.414-16.064 31.633-12.795l34.378 9.197c10.437 2.792 23.654 2.906 34.519 0l34.378-9.197c12.218-3.269 25.137 1.943 31.633 12.795 13.345 22.294 34.296 38.437 34.296 38.437l-.177-137.862c-.004-3.318-3.533-5.442-6.467-3.893z" fill="#596c76"/><path d="m373.535 144.606s-10.732-8.27-21.731-21.144l-.144-112.57 15.233-8.033c2.935-1.555 6.468.577 6.468 3.893z" fill="#465a61"/></g></svg>