<svg id="Capa_1" enable-background="new 0 0 512 512" height="512" viewBox="0 0 512 512" width="512" xmlns="http://www.w3.org/2000/svg"><g><path d="m434.63 512h-357.26c-.279-4.794-.279-9.488-.06-14.033 1.844-38.71 20.401-74.609 49.892-99.755 40.673-34.693 85.283-45.417 85.283-45.417 2.84-.289 5.193-1.206 7.126-2.571 10.973-7.664 8.82-29.301 8.82-29.301h55.135s-2.153 21.637 8.82 29.301c1.934 1.365 4.286 2.282 7.126 2.571 0 0 44.61 10.724 85.283 45.417 29.491 25.145 48.048 61.045 49.892 99.755.222 4.545.222 9.239-.057 14.033z" fill="#fd9468"/><path d="m434.627 511.998h-22.824c0-2.272-.051-4.514-.154-6.724-1.851-38.719-20.408-74.611-49.895-99.759-27.914-23.801-57.678-36.324-73.604-41.835 2.19-4.503 3.485-9.161 4.236-13.458 1.933 1.367 4.287 2.282 7.125 2.57 0 0 44.611 10.724 85.283 45.423 29.497 25.148 48.055 61.04 49.895 99.749.216 4.544.216 9.242-.062 14.034z" fill="#fe7d43"/><path d="m366.046 352.715c.073-9.953-2.226-21.53-7.106-30.339-7.406-13.369-20.629-21.522-35.283-24.912h-135.314c-19.382 4.483-34.381 18.143-39.591 37.469-5.365 19.903-2.807 41.988 13.31 56.188 14.187 12.499 32.482 19.304 51.39 19.406 10.254.055 22.192-1.512 31.531-6.993 6.785-3.983 15.248-3.983 22.033 0 9.339 5.482 21.277 7.049 31.531 6.993 18.908-.102 37.202-6.907 51.39-19.406 11.244-9.906 16.004-23.999 16.109-38.406z" fill="#fd6930"/><path d="m366.041 352.709c-.103 14.414-4.863 28.51-16.101 38.411-14.188 12.502-32.489 19.308-51.396 19.411-9.88.051-21.323-1.398-30.494-6.426 3.917.504 7.814.699 11.494.679 18.907-.103 37.198-6.909 51.386-19.411 11.248-9.901 16.008-23.997 16.111-38.401.072-9.952-2.231-21.529-7.104-30.34-4.668-8.42-11.638-14.774-19.812-19.164h3.537c14.651 3.382 27.873 11.536 35.275 24.912 4.883 8.8 7.186 20.377 7.104 30.329z" fill="#fd5426"/><g fill="#ffcebf"><path d="m145.735 235.793h-4.952c-14.933 0-27.039-12.106-27.039-27.039 0-14.933 12.106-27.039 27.039-27.039h4.952z"/><path d="m366.265 235.793h4.952c14.933 0 27.039-12.106 27.039-27.039 0-14.933-12.106-27.039-27.039-27.039h-4.952z"/></g><path d="m356.389 111.82 12.156 42.126v41.556l-4.002 14.695c0 3.835.016 10.264-.359 13.997-2.658 26.541-10.746 49.672-28.602 67.528-20.362 20.362-48.496 32.963-79.582 32.963-58.327 0-102.539-41.218-108.231-98.033-.375-3.734-1.555-15.306-1.555-19.141v-5.982l-2.759-6.027v-41.556l10.788-42.126h202.146z" fill="#ffcebf"/><path d="m356.389 115.458 12.16 46.05v33.993l-1.754 6.424.123 14.285c0 3.835-.164 6.976-.544 10.708-2.653 26.546-13.903 49.667-31.761 67.516-20.357 20.367-47.522 33.888-78.613 33.888-3.465 0-6.899-.154-10.281-.473 26.988-2.426 51.211-14.394 69.296-32.489 17.859-17.848 29.744-41.67 32.396-68.216.38-3.732.576-7.526.576-11.361v-100.325z" fill="#ffb09e"/><g><g><path d="m209.999 216.478c-4.266 0-7.724-3.458-7.724-7.724v-13.832c0-4.266 3.458-7.724 7.724-7.724s7.724 3.458 7.724 7.724v13.832c0 4.265-3.459 7.724-7.724 7.724z" fill="#596c76"/></g><g><path d="m302.001 216.478c-4.266 0-7.724-3.458-7.724-7.724v-13.832c0-4.266 3.458-7.724 7.724-7.724s7.724 3.458 7.724 7.724v13.832c0 4.265-3.457 7.724-7.724 7.724z" fill="#596c76"/></g></g><path d="m368.545 195.502v20.281c0 3.835-.193 7.63-.568 11.363-2.658 26.541-14.539 50.363-32.395 68.219-20.362 20.362-48.496 32.963-79.582 32.963-58.327 0-106.285-44.367-111.977-101.182-.375-3.734-.568-7.528-.568-11.363v-20.281s23.261 35.431 84.33 45.109c18.685 2.961 37.745 2.961 56.43 0 61.069-9.679 84.33-45.109 84.33-45.109z" fill="#f5f8f9"/><path d="m368.549 195.498v20.285c0 3.835-.195 7.629-.576 11.361-2.653 26.546-14.538 50.368-32.396 68.216-20.357 20.367-48.487 32.962-79.577 32.962-2.57 0-5.175-.06-7.732-.268-.853-.051-1.707-.123-2.55-.206 26.988-2.426 51.211-14.394 69.296-32.489 17.859-17.848 29.744-41.67 32.396-68.216.38-3.732.576-7.526.576-11.361v-.401c14.374-10.455 20.563-19.883 20.563-19.883z" fill="#d9e7ec"/><path d="m400.589 118.739c0-10.098-2.333-19.466-5.573-28.58-4.478-12.595-10.688-24.705-14.868-37.588-1.487-4.584-2.676-9.261-3.642-13.981-1.904-9.301-2.935-18.757-3.676-28.214-.003-.044-.007-.088-.01-.132-.499-6.732-6.758-11.476-13.336-9.961-39.663 9.135-94.789 4.563-104.109 4.564-47.096 0-89.367 12.493-118.246 44.764-20.706 23.138-31.923 58.345-23.578 88.98 3.667 13.461 13.97 25.37 28.546 26.55.16.013.564.114.717.04 10.864-5.265 14.926-13.037 16.378-18.994.65-2.668 3.787-3.82 6.034-2.242 17.139 12.031 45.252 22.91 90.774 22.482 45.51.428 73.62-10.445 90.761-22.472 2.247-1.576 5.382-.426 6.033 2.24 1.454 5.956 5.517 13.724 16.376 18.987 0-.001 32.247-.332 31.419-46.443z" fill="#596c76"/><path d="m369.166 165.179c-2.468-1.193-4.585-2.519-6.395-3.927 8.862-5.017 18.959-16.46 18.486-42.513 0-10.096-2.334-19.463-5.573-28.582-4.472-12.595-10.682-24.706-14.867-37.588-1.491-4.585-2.673-9.253-3.64-13.982-1.902-9.294-2.94-18.753-3.681-28.212 0-.041 0-.082-.01-.134-.247-3.29-1.861-6.107-4.226-7.937 3.496-.586 6.909-1.254 10.22-2.015 6.58-1.522 12.841 3.228 13.335 9.952.01.051.01.092.01.134.74 9.459 1.779 18.918 3.681 28.212.966 4.729 2.149 9.397 3.64 13.982 4.184 12.882 10.394 24.994 14.867 37.588 3.239 9.12 5.572 18.486 5.572 28.582.834 46.111-31.419 46.44-31.419 46.44z" fill="#465a61"/></g></svg>