<svg id="Capa_1" enable-background="new 0 0 512 512" height="512" viewBox="0 0 512 512" width="512" xmlns="http://www.w3.org/2000/svg"><g><path d="m455.115 231.622c-16.331-20.544-20.396-44.418-20.15-70.049.125-13.056-.399-26.256-3.216-39.013-3.49-15.804-10.368-30.485-19.675-43.324-55.176-76.122-158.482-99.987-239.992-60.265-28.073 13.681-53.278 34.22-72.156 60.265-9.306 12.839-16.185 27.52-19.675 43.324-2.817 12.757-3.341 25.957-3.216 39.013.246 25.631-3.819 49.506-20.15 70.049-15.292 19.236-24.488 44.117-24.423 71.282.143 59.808 45.889 108.989 102.189 109.822h242.699c56.299-.833 102.046-50.014 102.189-109.822.064-27.165-9.132-52.046-24.424-71.282z" fill="#433f43"/><path d="m479.538 302.907c-.144 59.8-45.89 108.987-102.187 109.822h-22.471c56.297-.835 102.043-50.022 102.187-109.822.072-27.169-9.129-52.052-24.419-71.288-16.331-20.545-20.4-44.417-20.153-70.051.124-13.054-.392-26.253-3.215-39.008-3.493-15.805-10.365-30.487-19.669-43.325-35.092-48.394-89.627-75.677-145.655-78.912 63.591-3.668 128.357 24.048 168.117 78.912 9.304 12.838 16.186 27.52 19.679 43.325 2.813 12.755 3.338 25.954 3.214 39.008-.247 25.634 3.822 49.507 20.153 70.051 15.29 19.236 24.481 44.119 24.419 71.288z" fill="#383538"/><g><path d="m438.779 497.646c-.77-16.72-4.539-32.94-10.878-48.065-.421-1.004 2.044-2.003 1.601-2.998-8.97-20.117-22.525-38.19-39.628-52.782-34.211-29.188-71.108-42.065-83.946-45.917-2.216-.665-4.479-1.138-6.738-1.636-17.423-3.845-14.543-32.792-14.543-32.792h-28.647-28.646s2.88 28.946-14.543 32.792c-2.261.499-4.525.972-6.743 1.638-7.277 2.184-22.274 7.264-40.13 16.566-.954.497-1.543 3.931-2.513 4.453-12.959 6.968-25.317 14.593-39.155 26.421-30.036 25.676-49.158 60.724-51.57 100.165-.325 5.322-.367 5.073-.041 10.739h366.046c.282-4.905.289-3.933.074-8.584z" fill="#d88a55"/><path d="m441.602 512h-19.628c-.01-.886-.041-1.772-.083-2.658-1.865-40.296-21.122-77.665-51.804-103.846-34.258-29.23-71.216-42.099-84.002-45.932-6.151-1.844-11.457-5.873-14.703-11.406-8.346-14.229-6.522-34.701-6.522-34.701h19.782s-2.875 28.956 14.56 32.795c2.28.502 4.558.982 6.793 1.654 12.894 3.874 49.697 16.745 83.832 45.854 30.642 26.129 49.919 63.426 51.835 103.65.228 4.73.228 9.593-.06 14.59z" fill="#c57a44"/><path d="m441.602 512h-371.204c-.288-4.997-.288-9.86-.062-14.589 1.916-40.224 21.194-77.521 51.835-103.65 14.816-12.632 30.127-22.203 43.768-29.302 20.678 34.979 82.054 83.404 263.555 82.127 7.099 15.898 11.323 33.073 12.168 50.826.228 4.728.228 9.591-.06 14.588z" fill="#b3dafe"/><path d="m441.602 512h-19.628c-.01-.886-.041-1.772-.083-2.658-1.03-22.348-7.418-43.789-18.134-62.922 8.294.175 16.877.227 25.737.165.443.989.876 1.988 1.298 2.998 1.63 3.895 3.097 7.892 4.389 11.931.402 1.257.793 2.524 1.154 3.802 2.953 10.459 4.804 21.187 5.327 32.094.228 4.73.228 9.593-.06 14.59z" fill="#8ac9fe"/></g><g fill="#d88a55"><path d="m145.501 235.197h-4.962c-14.965 0-27.097-12.132-27.097-27.097 0-14.965 12.132-27.097 27.097-27.097h4.962z"/><path d="m366.499 235.197h4.962c14.965 0 27.097-12.132 27.097-27.097 0-14.965-12.132-27.097-27.097-27.097h-4.962z"/></g><path d="m356.603 114.611 12.182 42.215v58.318c0 3.843-.193 7.646-.569 11.387-2.664 26.597-14.57 50.47-32.464 68.364-20.406 20.406-48.599 33.033-79.751 33.033-58.451 0-106.511-44.461-112.215-101.397-.376-3.741-.569-7.544-.569-11.387v-72.495l10.811-28.038z" fill="#f6a96c"/><path d="m356.603 114.606 12.186 37.477v63.061c0 3.843-.196 7.645-.577 11.385-2.658 26.603-14.569 50.475-32.465 68.362-20.4 20.411-48.59 33.032-79.747 33.032-3.472 0-6.913-.155-10.303-.474 27.046-2.431 51.32-14.424 69.443-32.558 17.897-17.886 29.807-41.759 32.465-68.362.381-3.74.577-7.542.577-11.385v-100.538z" fill="#ea9b58"/><g><g><path d="m209.901 215.825c-4.266 0-7.725-3.458-7.725-7.725v-13.862c0-4.267 3.459-7.725 7.725-7.725s7.725 3.458 7.725 7.725v13.862c0 4.267-3.459 7.725-7.725 7.725z" fill="#433f43"/></g><g><path d="m302.099 215.825c-4.266 0-7.725-3.458-7.725-7.725v-13.862c0-4.267 3.459-7.725 7.725-7.725s7.725 3.458 7.725 7.725v13.862c0 4.267-3.458 7.725-7.725 7.725z" fill="#433f43"/></g></g><path d="m368.784 194.82v20.324c0 3.843-.193 7.646-.569 11.387-2.664 26.597-14.57 50.47-32.464 68.364-20.406 20.406-48.599 33.033-79.751 33.033-58.451 0-106.511-44.461-112.215-101.397-.376-3.741-.569-7.544-.569-11.387v-20.324s23.311 35.506 84.509 45.205c18.725 2.968 37.825 2.968 56.55 0 61.199-9.699 84.509-45.205 84.509-45.205z" fill="#f5f8f9"/><path d="m368.789 194.816v20.328c0 3.843-.196 7.645-.577 11.385-2.658 26.603-14.569 50.475-32.465 68.362-20.4 20.411-48.59 33.032-79.747 33.032-1.154 0-2.298-.021-3.441-.062-2.292-.083-4.579-.189-6.862-.412 27.046-2.431 51.32-14.424 69.443-32.558 17.897-17.886 29.807-41.759 32.465-68.362.381-3.74.577-7.542.577-11.385v-.402c14.404-10.477 20.607-19.926 20.607-19.926z" fill="#d9e7ec"/><path d="m139.062 145.149s52.23 4.027 74.03-21.435c1.664-1.944 4.743-1.722 6.1.448 5.59 8.931 20.115 26.722 47.186 26.899 3.045.02 4.826-3.419 3.127-5.947-3.184-4.739-6.793-12.001-5.966-19.756.316-2.961 3.698-4.479 6.083-2.696 12.98 9.705 53.251 35.898 103.316 30.198v-52.883h-233.876z" fill="#433f43"/></g></svg>