<svg id="Capa_1" enable-background="new 0 0 512 512" height="512" viewBox="0 0 512 512" width="512" xmlns="http://www.w3.org/2000/svg"><g><g fill="#433f43"><circle cx="135.026" cy="48.316" r="48.316"/><circle cx="376.974" cy="48.316" r="48.316"/></g><g><path d="m425.286 48.321c0 26.683-21.627 48.31-48.31 48.31-15.18 0-28.722-6.993-37.579-17.94 5.87 2.533 12.327 3.934 19.124 3.934 26.683 0 48.31-21.637 48.31-48.32 0-11.503-4.027-22.07-10.741-30.37 17.178 7.404 29.196 24.489 29.196 44.386z" fill="#383538"/></g><path d="m368.669 112.347c-.648-17.701-6.841-34.816-17.978-48.565-22.533-27.817-56.801-45.573-95.178-45.573-36.72 0-69.678 16.257-92.195 42.028-12.595 14.416-19.559 32.933-20.007 52.111l-.043 50.633h225.466z" fill="#433f43"/><path d="m368.737 162.984h-20.597l-.144-50.638c-.639-17.703-6.838-34.819-17.971-48.568-20.494-25.293-50.699-42.275-84.86-45.138 3.409-.288 6.869-.433 10.35-.433 38.372 0 72.645 17.755 95.179 45.571 11.133 13.748 17.322 30.865 17.971 48.568z" fill="#383538"/><path d="m435 498.166c-1.777-38.566-20.069-74.429-49.343-99.599-10.256-8.818-20.777-16.107-30.787-22.082-.747-.446-3 1.521-3.741 1.09-10.218-5.947-17.709-10.427-25.873-13.851-.918-.385-2.433-3.252-3.313-3.608-7.705-3.12-13.912-5.155-17.813-6.326-2.134-.64-4.313-1.096-6.489-1.576-16.801-3.704-14.024-31.613-14.024-31.613h-27.617-27.616s2.776 27.905-14.02 31.613c-2.203.486-4.404.949-6.564 1.598-3.905 1.174-10.084 3.203-17.742 6.304-.678.275-2.092 3.055-2.793 3.347-8.316 3.46-16.934 7.47-27.441 13.59-.717.417-1.966-1.001-2.689-.57-9.803 5.85-20.096 12.962-30.15 21.535-29.539 25.188-48.124 61.147-49.974 99.923-.217 4.555-.215 9.251.061 14.059h66.191l4.261-3.138h217.316l3.897 3.138h66.191c.272-4.729.279-9.35.072-13.834z" fill="#883f2e"/><path d="m434.926 512h-20.597c.278-4.809.278-9.505.062-14.057-1.843-38.774-22.162-67.146-51.698-92.326-33.491-28.558-69.319-36.838-81.018-38.887-4.861-.844-9.371-3.285-12.42-7.168-10.783-13.738-6.231-38.959-6.231-38.959h20.597s-2.779 27.925 14.034 31.619c2.194.482 4.387.945 6.538 1.591 3.905 1.173 10.086 3.202 17.75 6.304.719.291 2.568 3.297 3.313 3.607 8.269 3.445 16.232 6.74 26.657 12.806.744.433 2.21-.493 2.96-.045 9.802 5.849 20.094 12.96 30.147 21.532 29.536 25.19 48.125 61.153 49.968 99.926.216 4.551.216 9.247-.062 14.057z" fill="#6d3326"/><path d="m368.737 474.359v37.641h-225.474v-37.641l13.872-34.974v-62.903c12.204-7.281 23.656-12.616 32.924-16.364v64.444c0 8.187 6.637 14.824 14.824 14.824h102.235c8.187 0 14.824-6.637 14.824-14.824v-64.444c9.269 3.749 20.72 9.083 32.924 16.364v62.903z" fill="#fee45a"/><path d="m354.865 376.482v22.852c-11.277-8.537-22.574-14.922-32.924-19.681v-19.536c4.645 1.885 9.845 4.161 15.417 6.88 5.196 2.536 10.274 5.251 15.273 8.167.741.432 1.483.875 2.234 1.318z" fill="#fcd827"/><g fill="#883f2e"><path d="m145.551 235.972h-4.96c-14.958 0-27.085-12.126-27.085-27.085 0-14.958 12.126-27.085 27.085-27.085h4.96z"/><path d="m366.449 235.972h4.96c14.958 0 27.085-12.126 27.085-27.085 0-14.958-12.126-27.085-27.085-27.085h-4.96z"/></g><path d="m356.557 115.441 12.176 42.196v37.976l-2.284 10.888v7.86c0 3.841-1.595 17.934-2.375 21.611-5.828 27.489-14.059 39.576-31.945 57.462-20.396 20.396-44.991 30.898-76.129 30.898-58.424 0-104.463-39.684-110.164-96.595-.376-3.74-.569-7.541-.569-11.382l-2-14.395v-6.347-37.976l10.806-42.196z" fill="#bb5d4c"/><path d="m356.557 124.757h12.18v70.857l-1.336 6.346-.664 14.428c0 3.841-.196 7.642-.577 11.38-2.657 26.591-12.928 46.862-30.816 64.741-20.391 20.401-48.201 36.148-79.344 36.148-3.471 0-6.91-.155-10.298-.474 27.034-2.43 51.297-14.418 69.412-32.543 17.888-17.878 29.794-41.74 32.45-68.331.381-3.738.577-7.539.577-11.38v-90.852z" fill="#a44f3e"/><g><g><path d="m209.922 216.387c-4.142 0-7.5-3.358-7.5-7.5v-13.855c0-4.142 3.358-7.5 7.5-7.5s7.5 3.358 7.5 7.5v13.855c0 4.142-3.358 7.5-7.5 7.5z" fill="#433f43"/></g><g><path d="m302.078 216.387c-4.142 0-7.5-3.358-7.5-7.5v-13.855c0-4.142 3.358-7.5 7.5-7.5s7.5 3.358 7.5 7.5v13.855c0 4.142-3.358 7.5-7.5 7.5z" fill="#433f43"/></g></g><path d="m368.733 195.613v20.315c0 3.841-.193 7.642-.569 11.382-2.663 26.585-14.563 50.447-32.449 68.333-20.396 20.396-48.577 33.018-79.715 33.018-58.424 0-106.463-44.441-112.164-101.351-.376-3.74-.569-7.541-.569-11.382v-20.315s23.3 35.49 84.471 45.185c18.716 2.966 37.808 2.966 56.524 0 61.171-9.695 84.471-45.185 84.471-45.185z" fill="#f5f8f9"/><path d="m368.737 195.61v20.319c0 3.841-.196 7.642-.577 11.38-2.657 26.591-14.562 50.452-32.45 68.331-20.391 20.401-48.568 33.017-79.71 33.017-2.569 0-5.268-.119-7.745-.268-.855-.051-1.71-.123-2.554-.206 27.034-2.43 51.297-14.418 69.412-32.543 17.888-17.878 29.794-41.74 32.45-68.331.381-3.738.577-7.539.577-11.38v-.402c14.398-10.473 20.597-19.917 20.597-19.917z" fill="#d9e7ec"/><path d="m143.267 112.347v49.216c40.994-1.227 81.744-9.797 103.823-31.97 3.57-3.585 6.498-6.909 8.91-9.934 2.412 3.026 5.34 6.349 8.91 9.934 22.079 22.173 62.834 30.743 103.827 31.97v-49.216z" fill="#433f43"/><path d="m368.665 112.346.072 49.217-9.356-.411-11.24-.87-.145-47.936z" fill="#383538"/></g></svg>