<svg id="Capa_1" enable-background="new 0 0 512 512" height="512" viewBox="0 0 512 512" width="512" xmlns="http://www.w3.org/2000/svg"><g><path d="m434.838 511.775h-62.009l-4.153-5.77h-225.352l-4.153 5.77h-62.009c-.279-4.8-.279-9.499-.06-14.049 1.846-38.755 20.425-74.696 49.951-99.871 13.454-11.476 27.339-20.333 39.9-27.048.876-.468 3.115 1.562 3.977 1.114 11.952-6.203 21.758-10.68 29.43-13.377 1.382-.486 2.096-3.167 3.279-3.555 1.293-.425 2.461-.793 3.493-1.108 2.41-.736 4.866-1.267 7.324-1.823 1.962-.444 3.657-1.218 5.115-2.247 10.986-7.673 8.831-29.336 8.831-29.336h55.198s-2.155 21.663 8.831 29.336c1.457 1.029 3.152 1.804 5.115 2.247 2.458.556 4.914 1.087 7.324 1.823 1.032.315 2.201.684 3.495 1.109.875.288.843 2.044 1.828 2.384 8.273 2.858 20.872 7.254 34.454 14.515.678.363 1.763-.349 2.449.026 12.013 6.572 25.126 15.084 37.853 25.94 29.525 25.175 48.105 61.116 49.951 99.871.218 4.55.218 9.25-.062 14.049z" fill="#ffa78f"/><path d="m434.836 511.774h-20.123c0-2.254-.051-4.478-.154-6.67-1.842-38.754-20.226-71.755-49.758-96.932-16.665-14.225-35.78-25.579-56.129-33.68-9.964-3.963-20.885-5.054-30.746-8.935-7.741-3.036-11.333-10.839-12.97-18.507-.247-1.194-2.964-20-2.182-20 0-.031-.01-6.547-.021-6.578h20.844s-2.151 21.667 8.832 29.336c1.451 1.027 3.14 1.799 5.092 2.242 2.467.56 4.932 1.09 7.352 1.829 1.031.315 2.198.683 3.49 1.108.489.161 1.445 1.329 1.97 1.507 15.567 5.262 44.79 17.492 73.554 42.031 9.297 7.923 17.286 16.994 24.232 26.805.259.365 1.796-.016 2.051.351 14.656 21.117 23.488 45.942 24.729 72.042.215 4.55.215 9.254-.063 14.051z" fill="#f89580"/><path d="m372.829 512h-233.658l.021-.226 5.208-67.855c.589-7.67 3.351-14.987 7.816-21.251 14.626-20.516 15.434-41.641 14.737-51.861 15.203-8.132 28.471-13.124 36.685-15.821 6.474 23.602 4.611 47.607 4.611 47.607l47.751 25.033 47.751-25.033s-1.863-24.004 4.611-47.607c8.214 2.697 21.482 7.689 36.685 15.821-.697 10.22.11 31.346 14.737 51.861 4.465 6.263 7.227 13.581 7.816 21.251l5.208 67.855z" fill="#528fd8"/><path d="m347.096 394.749c-12.033-8.111-24.961-14.895-38.425-20.257-1.266-.504-2.553-.957-3.85-1.379.731-5.775 1.853-11.961 3.541-18.127.494.165.998.329 1.523.515.031 0 .052.01.072.021.803.268 1.637.556 2.512.875 3.071 1.119 14.802 5.795 17.911 7.205 2.005.909 3.974 1.863 5.96 2.779.401.185.803.381 1.204.587 2.44 1.194 4.941 2.471 7.504 3.839-.371 5.455-.32 14.019 2.048 23.942z" fill="#0473ce"/><path d="m310.068 281.475c-5.846 12.931-4.153 26.851 3.442 39.542 7.135 11.922 17.357 21.967 23.063 34.636 11.226 24.924 6.494 57.431-12.735 77.208-5.944 6.114-13.79 10.613-22.092 12.237-4.733.926-6.339 7.06-2.44 9.897.113.082.221.154.323.214 24.509 14.473 66.844 9.719 89.256-6.408 19.164-13.789 31.048-36.384 36.332-58.988 12.205-52.206-13.727-133.467-78.217-131.335-15.763.523-30.268 8.259-36.932 22.997z" fill="#433f43"/><path d="m425.222 389.819c-5.291 22.604-17.169 45.198-36.335 58.98-13.567 9.769-34.452 15.368-54.256 15.039 11.981-2.429 23.16-6.876 31.539-12.908 19.156-13.783 31.045-36.387 36.325-58.981 11.621-49.675-11.302-125.661-69.109-131.075 4.313-1.441 8.904-2.244 13.618-2.398 64.487-2.131 90.415 79.135 78.218 131.343z" fill="#383538"/><path d="m394.747 79.114c-5.882-12.535-13.878-24.051-23.89-33.64-29.821-28.561-73.051-45.474-114.288-45.474-.19 0-.379.008-.569.008s-.378-.008-.569-.008c-41.237 0-84.468 16.913-114.288 45.474-10.012 9.589-18.008 21.105-23.89 33.64-28.832 61.446-21.333 160.944 38.139 202.612 19.039 13.34 38.511 17.946 61.311 18.641 3.005.091 75.589.091 78.594 0 22.8-.695 42.272-5.301 61.311-18.641 59.472-41.668 66.971-141.166 38.139-202.612z" fill="#433f43"/><path d="m356.607 281.728c-18.394 12.887-37.179 17.622-58.991 18.549 13.67-2.594 26.341-7.576 38.826-16.325 59.475-41.667 66.968-141.162 38.137-202.613-5.877-12.537-13.875-24.045-23.891-33.638-29.82-28.564-73.052-45.476-114.286-45.476-.196 0-.381.01-.566.01-.196 0-.381-.01-.576-.01-2.357 0-4.714.052-7.082.165 9.068-1.575 18.209-2.388 27.257-2.388.185 0 .381.01.566.01s.381-.01.566-.01c41.235 0 84.467 16.912 114.287 45.476 10.015 9.583 18.013 21.101 23.891 33.638 28.83 61.44 21.336 160.945-38.138 202.612z" fill="#383538"/><path d="m356.506 125.655 12.17 21.847v49.962l-2.017 6.337-.241 14.389c0 3.84-.193 7.638-.569 11.376-2.661 26.572-13.438 47.487-31.315 65.364-20.386 20.386-47.412 32.395-78.534 32.395-58.395 0-103.927-40.621-109.625-97.503-.376-3.738-.569-7.537-.569-11.376l-.511-13.141-1.972-7.846v-54.001l10.801-17.802h202.382z" fill="#ffcebf"/><path d="m356.506 117.322 12.174 30.181v70.261c0 3.839-.195 7.638-.576 11.374-2.656 26.577-14.555 50.427-32.434 68.296-20.381 20.391-48.543 33-79.67 33-3.469 0-6.907-.155-10.293-.474 27.02-2.429 51.271-14.411 69.377-32.527 17.879-17.869 29.779-41.719 32.434-68.296.381-3.736.576-7.535.576-11.374v-100.441z" fill="#ffb09e"/><g><g><path d="m209.945 218.446c-4.264 0-7.72-3.456-7.72-7.72v-13.849c0-4.264 3.456-7.72 7.72-7.72s7.72 3.456 7.72 7.72v13.849c-.001 4.264-3.456 7.72-7.72 7.72z" fill="#433f43"/></g><g><path d="m302.055 218.446c-4.264 0-7.72-3.456-7.72-7.72v-13.849c0-4.264 3.456-7.72 7.72-7.72s7.72 3.456 7.72 7.72v13.849c0 4.264-3.455 7.72-7.72 7.72z" fill="#433f43"/></g></g><path d="m368.676 197.458v20.305c0 3.84-.193 7.638-.569 11.376-2.661 26.572-14.556 50.422-32.433 68.298-20.386 20.386-48.552 33.001-79.675 33.001-58.395 0-106.409-44.418-112.107-101.3-.376-3.738-.569-7.537-.569-11.376v-20.305s23.288 35.472 84.428 45.162c18.707 2.965 37.789 2.965 56.496 0 61.141-9.689 84.429-45.161 84.429-45.161z" fill="#f5f8f9"/><path d="m368.681 197.455v20.309c0 3.839-.195 7.638-.576 11.374-2.656 26.577-14.555 50.427-32.434 68.296-20.381 20.391-48.543 33-79.67 33-2.595 0-5.156-.058-7.741-.268-.854-.051-1.709-.123-2.553-.206 27.02-2.429 51.271-14.411 69.377-32.527 17.879-17.869 29.779-41.719 32.434-68.296.381-3.736.576-7.535.576-11.374v-.401c14.39-10.468 20.587-19.907 20.587-19.907z" fill="#d9e7ec"/><path d="m350.668 78.324c-15.648-19.498-38.23-32.038-62.409-37.576-21.267-4.871-43.222-4.878-64.518 0-24.179 5.538-46.761 18.079-62.409 37.576-13.475 16.79-20.574 37.81-20.574 59.339v7.363s33.576 10.104 36.17 10.727c7.699 1.849 15.454 3.466 23.255 4.824 9.016 1.57 24.332 2.747 33.421 3.537 0 0 9.386-22.174 22.397-32.123 13.011 9.95 22.397 32.123 22.397 32.123 9.089-.79 24.404-1.967 33.421-3.537 7.801-1.359 15.556-2.975 23.255-4.824 2.594-.623 36.17-10.727 36.17-10.727v-7.363c-.002-21.529-7.101-42.549-20.576-59.339z" fill="#433f43"/></g></svg>