<svg id="Capa_1" enable-background="new 0 0 512 512" height="512" viewBox="0 0 512 512" width="512" xmlns="http://www.w3.org/2000/svg"><g><path d="m368.554 53.677c-26.784-32.76-67.516-53.672-113.132-53.672-43.647 0-82.822 19.145-109.586 49.496-15.483 17.558-23.833 40.28-23.833 63.689v1.325 222.82c0 55.832 45.261 101.093 101.093 101.093h65.81c55.832 0 101.093-45.261 101.093-101.093v-222.82c.001-22.132-7.437-43.705-21.445-60.838z" fill="#596c76"/><path d="m390.001 114.511v222.823c0 55.837-45.259 101.096-101.096 101.096h-21.473c55.826 0 101.096-45.259 101.096-101.096v-222.823c0-11.071-1.861-21.987-5.468-32.287-3.618-10.3-8.974-19.983-15.984-28.545-24.65-30.159-61.141-50.286-102.371-53.287 3.536-.258 7.113-.392 10.721-.392 45.609 0 86.345 20.918 113.123 53.678 7 8.563 12.366 18.246 15.984 28.545 3.608 10.3 5.468 21.217 5.468 32.288z" fill="#465a61"/><g fill="#ffa78f"><path d="m145.759 235.849h-4.951c-14.93 0-27.034-12.103-27.034-27.034 0-14.93 12.103-27.034 27.034-27.034h4.951z"/><path d="m366.244 235.849h4.951c14.93 0 27.034-12.103 27.034-27.034 0-14.93-12.103-27.034-27.034-27.034h-4.951z"/></g><g><path d="m430.96 508.676h-348.603c-.279-4.793-.279-6.162-.06-10.706 1.843-38.702 20.397-74.594 49.882-99.734 32.87-28.037 62.337-35.49 74.717-39.206 2.049-.615 4.129-1.101 6.226-1.524 2.116-.427 4.953-6.158 6.499-7.249 10.971-7.663 8.819-29.296 8.819-29.296h55.124s-2.152 21.633 8.819 29.296c1.545 1.091 3.358 1.896 5.473 2.322 2.097.423 4.177 6.358 6.226 6.973 12.38 3.716 44.16 12.283 77.03 40.32 29.485 25.14 48.065 59.395 49.908 98.097.219 4.545.219 5.914-.06 10.707z" fill="#ffa78f"/><path d="m428.291 512h-350.883c-.279-4.793-.279-9.486-.06-14.03 1.843-38.702 20.397-74.594 49.882-99.734 32.87-28.037 68.312-40.417 80.691-44.133 2.049-.615 4.129-1.101 6.226-1.524 2.116-.427 3.928-1.231 5.473-2.322 1.706 9.703 6.185 21.309 17.375 28.577 11.485 7.459 26.525 7.459 38.01 0 11.19-7.268 15.669-18.874 17.376-28.577 1.545 1.091 2.086 5.733 4.201 6.16 2.097.423 5.449 2.521 7.498 3.136 12.38 3.716 43.778 14.82 76.648 42.857 29.485 25.14 45.777 56.859 47.621 95.561.221 4.543.221 9.236-.058 14.029z" fill="#b3dafe"/><path d="m434.593 511.998h-22.82c0-2.272-.051-4.513-.154-6.723-1.85-38.711-20.404-74.596-49.885-99.739-27.908-23.796-57.666-36.316-73.589-41.826 2.189-4.502 3.485-9.159 4.235-13.456 1.539 1.089 3.346 1.891 5.452 2.318 2.105.427 4.195.911 6.252 1.529 12.385 3.718 47.821 16.099 80.686 44.137 29.491 25.143 48.045 61.028 49.885 99.729.215 4.543.215 9.24-.062 14.031z" fill="#8ac9fe"/></g><path d="m356.371 115.543 12.153 46.036v33.987l-6.479 14.98v13.943c0 3.834-.193 7.628-.568 11.361-2.658 26.536-13.069 39.997-30.922 57.85-20.358 20.358-43.474 30.314-74.554 30.314-28.271 0-50.657-11.101-69.175-26.132-19.679-15.973-34.699-36.746-37.631-66.011-.375-3.733-.568-7.526-.568-11.361v-13.943l-5.149-8.511v-40.396l10.786-42.117z" fill="#ffcebf"/><path d="m356.371 115.539 12.158 46.041v54.264c0 3.834-.195 7.627-.576 11.359-2.652 26.541-14.535 50.358-32.39 68.203-20.353 20.363-48.477 32.955-79.561 32.955-3.464 0-6.897-.154-10.279-.473 26.983-2.426 51.201-14.391 69.282-32.482 17.855-17.845 29.738-41.662 32.39-68.203.38-3.731.576-7.524.576-11.359v-100.305z" fill="#ffb09e"/><g><g><path d="m210.009 216.314c-4.143 0-7.5-3.357-7.5-7.5v-13.829c0-4.143 3.357-7.5 7.5-7.5s7.5 3.357 7.5 7.5v13.829c0 4.143-3.357 7.5-7.5 7.5z" fill="#596c76"/></g><g><path d="m301.994 216.314c-4.143 0-7.5-3.357-7.5-7.5v-13.829c0-4.143 3.357-7.5 7.5-7.5s7.5 3.357 7.5 7.5v13.829c0 4.143-3.358 7.5-7.5 7.5z" fill="#596c76"/></g></g><path d="m368.524 195.566v20.277c0 3.834-.193 7.628-.568 11.361-2.658 26.536-14.536 50.353-32.388 68.205-20.358 20.358-48.486 32.956-79.566 32.956-58.315 0-106.264-44.358-111.954-101.161-.375-3.733-.568-7.526-.568-11.361v-20.277s23.257 35.424 84.313 45.1c18.681 2.961 37.737 2.961 56.418 0 61.056-9.677 84.313-45.1 84.313-45.1z" fill="#f5f8f9"/><path d="m368.528 195.562v20.281c0 3.834-.195 7.627-.576 11.359-2.652 26.541-14.535 50.358-32.39 68.203-20.353 20.363-48.477 32.955-79.561 32.955-2.61 0-5.128-.111-7.73-.268-.853-.051-1.706-.123-2.549-.206 26.983-2.426 51.201-14.391 69.282-32.482 17.855-17.845 29.738-41.662 32.39-68.203.38-3.731.576-7.524.576-11.359v-.401c14.37-10.453 20.558-19.879 20.558-19.879z" fill="#d9e7ec"/><path d="m266.803 112.455h-21.602-104.704v49.124c40.917-1.225 84.573-9.779 106.611-31.91 3.563-3.579 6.486-6.896 8.894-9.916 2.408 3.02 5.33 6.337 8.894 9.916 22.037 22.131 62.716 30.685 103.633 31.91v-49.124z" fill="#596c76"/></g></svg>